<svg xmlns="http://www.w3.org/2000/svg" width="1160" height="500" viewBox="0 0 1160 500" role="img" aria-label="UI status deteksi dan menu data TBS">
  <defs><style>.bg{fill:#f6f8fa}.phone{fill:#1f2933}.screen{fill:#0b1220}.bar{fill:#111827}.btn{fill:#0f766e}.btn2{fill:#374151}.badgeOn{fill:#d1fae5;stroke:#10b981;stroke-width:2}.badgeOff{fill:#fee2e2;stroke:#ef4444;stroke-width:2}.card{fill:#fff;stroke:#c8d7d5;stroke-width:2}.text{font-family:Arial,Helvetica,sans-serif;fill:#111827;font-size:21px;font-weight:700}.small{font-family:Arial,Helvetica,sans-serif;fill:#4b5563;font-size:16px}.white{font-family:Arial,Helvetica,sans-serif;fill:#fff;font-size:16px;font-weight:700}.green{font-family:Arial,Helvetica,sans-serif;fill:#065f46;font-size:15px;font-weight:700}.red{font-family:Arial,Helvetica,sans-serif;fill:#991b1b;font-size:15px;font-weight:700}.arrow{stroke:#0f766e;stroke-width:4;fill:none;marker-end:url(#arrow)}</style><marker id="arrow" markerWidth="12" markerHeight="12" refX="10" refY="6" orient="auto"><path d="M2,2 L10,6 L2,10 Z" fill="#0f766e"/></marker></defs>
  <rect class="bg" width="1160" height="500"/><text x="45" y="50" class="text" font-size="28">UI Operasional: Mulai, Stop, Status, dan Data</text>
  <rect x="70" y="90" width="300" height="360" rx="28" class="phone"/><rect x="92" y="120" width="256" height="292" rx="12" class="screen"/><rect x="102" y="132" width="92" height="30" rx="6" class="btn2"/><text x="125" y="153" class="white">Data</text><rect x="206" y="132" width="128" height="30" rx="15" class="badgeOff"/><text x="218" y="153" class="red">Deteksi tidak aktif</text><rect x="112" y="350" width="72" height="38" rx="6" class="btn"/><text x="127" y="375" class="white">Mulai</text><rect x="190" y="350" width="64" height="38" rx="6" class="btn2"/><text x="207" y="375" class="white">Stop</text><rect x="260" y="350" width="64" height="38" rx="6" class="btn2"/><text x="276" y="375" class="white">Foto</text>
  <rect x="455" y="90" width="300" height="360" rx="28" class="phone"/><rect x="477" y="120" width="256" height="292" rx="12" class="screen"/><rect x="487" y="132" width="92" height="30" rx="6" class="btn2"/><text x="510" y="153" class="white">Data</text><rect x="591" y="132" width="128" height="30" rx="15" class="badgeOn"/><text x="612" y="153" class="green">Deteksi aktif</text><rect x="497" y="350" width="72" height="38" rx="6" class="btn2"/><text x="518" y="375" class="white">Live</text><rect x="575" y="350" width="64" height="38" rx="6" class="btn"/><text x="592" y="375" class="white">Stop</text><rect x="645" y="350" width="64" height="38" rx="6" class="btn2"/><text x="661" y="375" class="white">Foto</text><rect x="525" y="210" width="120" height="65" rx="6" fill="none" stroke="#34d399" stroke-width="4"/><text x="535" y="202" class="white">TBS-000140</text>
  <rect x="835" y="115" width="250" height="110" rx="8" class="card"/><text x="862" y="155" class="text">Menu Data</text><text x="862" y="185" class="small">Buka daftar data TBS</text><text x="862" y="208" class="small">tanpa keluar dari app</text>
  <rect x="835" y="280" width="250" height="130" rx="8" class="card"/><text x="862" y="320" class="text">Data Tersimpan</text><text x="862" y="350" class="small">Total record</text><text x="862" y="373" class="small">Ringkasan class</text><text x="862" y="396" class="small">Thumbnail + path DB</text>
  <path d="M370 255 H450" class="arrow"/><text x="386" y="238" class="small">Tekan Mulai</text><path d="M755 145 H830" class="arrow"/><path d="M960 225 V275" class="arrow"/>
</svg>
