<svg xmlns="http://www.w3.org/2000/svg" width="1160" height="540" viewBox="0 0 1160 540" role="img" aria-label="Penyimpanan data TBS mGradingUSTP">
  <defs><style>.bg{fill:#f8fafb}.box{fill:#fff;stroke:#c8d7d5;stroke-width:2}.db{fill:#e8f1ff;stroke:#2b6cb0;stroke-width:2}.img{fill:#e7f7ef;stroke:#18805a;stroke-width:2}.ui{fill:#f2e8ff;stroke:#6b46c1;stroke-width:2}.text{font-family:Arial,Helvetica,sans-serif;fill:#1f2933;font-size:22px;font-weight:700}.small{font-family:Arial,Helvetica,sans-serif;fill:#52616f;font-size:16px}.mono{font-family:Consolas,Monaco,monospace;fill:#1f2933;font-size:15px}.arrow{stroke:#0f766e;stroke-width:4;fill:none;marker-end:url(#arrow)}</style><marker id="arrow" markerWidth="12" markerHeight="12" refX="10" refY="6" orient="auto"><path d="M2,2 L10,6 L2,10 Z" fill="#0f766e"/></marker></defs>
  <rect class="bg" width="1160" height="540"/><text x="45" y="52" class="text" font-size="28">Storage, Foto, dan Menu Data</text>
  <rect x="60" y="100" width="320" height="120" rx="8" class="box"/><text x="86" y="140" class="text">Detection valid</text><text x="86" y="170" class="small">class, label, bbox, confidence</text><text x="86" y="194" class="small">Hanya objek confidence >= 50%</text>
  <rect x="515" y="75" width="480" height="150" rx="8" class="db"/><text x="542" y="116" class="text">SQLite external: mgrading.db</text><text x="542" y="148" class="mono">/sdcard/Android/data/com.ustp.mgrading/</text><text x="542" y="171" class="mono">files/Documents/mgrading.db</text><text x="542" y="202" class="small">Tabel grading_tags, tag_code TBS-xxxxxx</text>
  <rect x="515" y="285" width="480" height="150" rx="8" class="img"/><text x="542" y="326" class="text">Image Store</text><text x="542" y="358" class="mono">files/Pictures/grading/YYYYMMDD/</text><text x="542" y="389" class="small">frame_*.jpg, crop_*.jpg, annotated_*.jpg</text><text x="542" y="413" class="small">annotated_image_path tersimpan di DB</text>
  <rect x="60" y="315" width="320" height="105" rx="8" class="ui"/><text x="86" y="355" class="text">Data TBS Tersimpan</text><text x="86" y="385" class="small">Menu Data menampilkan total</text><text x="86" y="408" class="small">summary class dan thumbnail</text>
  <path d="M380 160 H510" class="arrow"/><path d="M220 220 C300 340 405 363 510 363" class="arrow"/><path d="M515 150 C460 235 410 305 380 350" class="arrow"/>
</svg>
